<svg xmlns="http://www.w3.org/2000/svg" viewBox="0 0 44.023 44.023"><path d="M43.729.29a.98.98 0 0 0-.799-.276H1.099A.985.985 0 0 0 .301.29a.973.973 0 0 0-.203.306.995.995 0 0 0-.098.418c0 .292.129.549.329.731L15 22.284v20.662a.98.98 0 0 0 .077.446.997.997 0 0 0 .923.621.989.989 0 0 0 .749-.354l11.98-11.953a.984.984 0 0 0 .271-.828v-8.589L43.729 1.706a1 1 0 0 0 0-1.416zM27.284 21.288a.988.988 0 0 0-.284.759V30.6l-10 9.977v-18.53a.99.99 0 0 0-.284-.759L2.949 2.014h38.128L27.284 21.288z"/><path d="M16.963 31.094c-.003-7.018.022-9.29-.063-9.47-.062-.132-3.245-4.572-7.033-9.87-3.787-5.296-6.94-9.718-6.918-9.74.022-.022 8.736-.048 19.151-.03l18.977.03-6.981 9.767c-3.816 5.338-7.021 9.772-7.067 9.891-.047.119.03 2.187.009 4.582L27 30.6l-4.883 4.923c-2.67 2.69-5.091 5.06-5.13 5.06-.038 0-.022-4.397-.024-9.489z" fill="#fff"/></svg>